<svg width="41" height="42" viewBox="0 0 41 42" fill="none" xmlns="http://www.w3.org/2000/svg">
<path fill-rule="evenodd" clip-rule="evenodd" d="M20.5474 0.295898C25.7752 0.295898 30.0938 4.27922 30.6262 9.37374L30.7748 9.3755C33.6748 9.3755 37.2008 11.3015 38.3908 16.7035L39.9688 28.9175C40.5348 32.8595 39.8268 36.0215 37.8608 38.2895C35.9048 40.5455 32.8088 41.7395 28.9068 41.7395H12.2108C7.92484 41.7395 4.93884 40.6895 3.08084 38.5315C1.21484 36.3675 0.59084 33.1215 1.22684 28.8855L2.77884 16.8335C3.79884 11.3075 7.52884 9.3755 10.4168 9.3755C10.6662 7.07645 11.7028 4.8893 13.3474 3.2499C15.2374 1.3719 17.8434 0.295898 20.5054 0.295898H20.5474ZM30.7748 12.3755H10.4168C9.53484 12.3755 6.58684 12.7315 5.74084 17.2995L4.19684 29.2995C3.69484 32.6655 4.08284 35.1015 5.35284 36.5755C6.60684 38.0315 8.85084 38.7395 12.2108 38.7395H28.9068C31.0028 38.7395 33.8648 38.3215 35.5928 36.3255C36.9648 34.7435 37.4368 32.3875 36.9968 29.3215L35.4388 17.2175C34.7748 14.2355 33.0228 12.3755 30.7748 12.3755ZM26.3804 17.9437C27.2084 17.9437 27.9264 18.6157 27.9264 19.4437C27.9264 20.2717 27.3004 20.9437 26.4724 20.9437H26.3804C25.5524 20.9437 24.8804 20.2717 24.8804 19.4437C24.8804 18.6157 25.5524 17.9437 26.3804 17.9437ZM14.7202 17.9437C15.5482 17.9437 16.2662 18.6157 16.2662 19.4437C16.2662 20.2717 15.6382 20.9437 14.8102 20.9437H14.7202C13.8922 20.9437 13.2202 20.2717 13.2202 19.4437C13.2202 18.6157 13.8922 17.9437 14.7202 17.9437ZM20.5414 3.2959H20.5114C18.6294 3.2959 16.7954 4.0539 15.4654 5.3759C14.382 6.45443 13.6735 7.87229 13.4443 9.37457L27.6028 9.37513C27.0889 5.93866 24.1172 3.2959 20.5414 3.2959Z" fill="black"/>
</svg>
