<svg xmlns="http://www.w3.org/2000/svg" xmlns:xlink="http://www.w3.org/1999/xlink" enable-background="new 0 0 4680 3120" viewBox="0 0 4680 3120"><path fill="#231f20" d="M3145.409 2319.803c-61.251-64.389-189.701 41.196-152.035 116 37.201 73.92 179.199 60.819 181.357-29.754.061-2.509-2.195-5.453-4.767-5.754-1.356-.162-2.705-.328-4.056-.499-4.263-.521-7.281 1.976-7.569 6.249-1.311 20.322 1.047 40.428 5.612 60.225 1.801 7.74 13.532 3.939 11.753-3.76-4.371-18.814-6.281-37.701-5.046-56.963-2.508 2.09-5.037 4.179-7.546 6.252 3.977.503-11.527 30.057-15.451 34.674-12.019 14.129-31.702 20.492-49.302 23.406-31.795 5.305-68.671-4.272-88.81-30.478-47.62-61.925 73.002-167.834 127.502-110.521C3142.556 2334.642 3150.859 2325.539 3145.409 2319.803L3145.409 2319.803zM2237.38 2366.995c6.627 40.643 10.753 122.792 53.442 144.361 38.65 19.497 101.115-32.668 135.176-47.431 7.195-3.13 3.529-14.926-3.762-11.763-35.939 15.59-68.27 38.118-106.367 49.003-50.024 14.283-61.208-104.175-66.171-134.693C2248.431 2358.747 2236.102 2359.151 2237.38 2366.995L2237.38 2366.995z" class="color231f20 svgShape"/><path fill="#231f20" d="M2265.972 2436.936c26.603-18.535 57.807-29.609 90.184-31.646 7.923-.476 7.425-12.796-.506-12.304-34.455 2.147-67.994 13.818-96.326 33.583C2252.825 2431.095 2259.435 2441.494 2265.972 2436.936L2265.972 2436.936zM2247.038 2376.011c39.024-23.504 84.008-50.146 130.405-53.819 7.888-.643 7.412-12.962-.515-12.319-48.536 3.859-95.659 31.141-136.549 55.773C2233.571 2369.748 2240.221 2380.128 2247.038 2376.011L2247.038 2376.011zM2856.435 2481.476c-5.442-40.705-17.602-79.637-27.62-119.353-3.342 2.123-6.685 4.276-10.045 6.396 44.808 39.928 79.362 94.377 135.77 119.3 3.6 1.602 7.964.05 8.896-4.047 11.18-49.24 9.245-104.813-8.362-152.398-2.75-7.432-14.504-3.712-11.743 3.762 16.829 45.474 18.785 98.815 8.085 145.838 2.979-1.34 5.938-2.681 8.913-4.03-55.306-24.426-89.269-78.346-133.198-117.477-4.79-4.263-11.531.531-10.051 6.411 9.74 38.637 21.745 76.48 27.035 116.096C2845.154 2489.792 2857.473 2489.358 2856.435 2481.476L2856.435 2481.476zM1971.635 2379.574c-45.713-29.125-102.57 17.872-121.464 58.461-22.492 48.338 18.733 92.59 67.648 93.031 44.27.407 82.974-39.754 95.225-79.503 15.073-48.998-25.898-74.288-69.354-75.81-7.955-.288-7.395 12.031.499 12.321 39.67 1.403 68.69 22.176 55.789 64.112-9.961 32.368-41.521 60.83-74.976 66.009-20.257 3.124-38.479-5.243-53.868-17.707-19.287-15.573-17.606-40.488-8.132-60.845 15.715-33.772 65.525-72.964 102.842-49.204C1972.572 2394.737 1978.283 2383.808 1971.635 2379.574L1971.635 2379.574zM2483.542 2376.374c-8.767 17.903-4.903 44.023-4 63.08.94 19.823.197 45.079 7.961 63.804 3.027 7.261 14.805 3.593 11.737-3.762-6.742-16.274-5.968-37.953-7.083-55.231-1.138-17.691-5.832-45.55 2.276-62.101C2497.931 2375.029 2487.033 2369.246 2483.542 2376.374L2483.542 2376.374zM2407.563 2375.989c48.3-11.652 97.841-25.847 147.282-12.488 7.695 2.078 10.443-9.947 2.796-12.026-51.556-13.914-103.445.613-153.84 12.755C2396.066 2366.102 2399.866 2377.823 2407.563 2375.989L2407.563 2375.989zM1819.482 2423.556c-27.66-24.341-78.366-41.268-114.416-28.854-28.3 9.744-51.502 47.129-32.462 75.108 15.948 23.443 61.548 15.029 84.41 12.229 15.944-1.981 32.363-5.923 48.48-5.324 23.074.824 7.982 29.893-3.267 36.121-15.318 8.476-36.068 8.305-50.528-1.469-6.588-4.45-13.66 5.663-7.089 10.089 22.693 15.354 79.6 13.073 85.206-21.974 5.527-34.661-26.076-36.139-49.813-33.017-23.118 3.021-94.228 21.282-101.354-13.184-7.778-37.642 33.851-51.503 62.51-49.084 24.9 2.113 52.402 12.872 71.232 29.433C1818.374 2438.888 1825.382 2428.738 1819.482 2423.556L1819.482 2423.556zM2047.184 2521.266c11.436-48.741 7.215-99.116 23.424-146.995-3.731.654-7.462 1.311-11.201 1.941 24.722 29.675 45.441 62.407 73.35 89.334 2.737 2.646 7.996 1.943 9.614-1.647 16.356-36.048 36.428-69.866 56.985-103.639-3.781-.34-7.547-.686-11.322-1.025 11.903 46.772 23.31 93.653 35.197 140.402 1.96 7.722 13.705 3.919 11.754-3.743-11.901-46.775-23.311-93.653-35.204-140.422-1.407-5.498-8.73-5.242-11.322-1.003-20.544 33.773-40.615 67.592-56.972 103.639 3.208-.525 6.415-1.09 9.621-1.633-27.145-26.177-47.289-58.068-71.31-86.921-3.525-4.215-9.388-3.413-11.201 1.936-16.278 48.04-11.943 98.079-23.44 146.979C2033.343 2526.248 2045.362 2528.997 2047.184 2521.266L2047.184 2521.266zM2588.757 2338.719c10.454 52.165 14.96 105.21 22.707 157.817 1.136 7.775 13.474 7.372 12.305-.499-7.88-53.696-12.601-107.837-23.252-161.088C2598.946 2327.182 2587.225 2330.991 2588.757 2338.719L2588.757 2338.719z" class="color231f20 svgShape"/><path fill="#231f20" d="M2570.976,2421.891c54.61-13.554,110.048-20.815,165.854-27.12     c7.852-0.897,7.415-13.218-0.499-12.32c-56.928,6.438-113.442,13.872-169.116,27.688     C2559.509,2412.058,2563.278,2423.796,2570.976,2421.891L2570.976,2421.891z" class="color231f20 svgShape"/><path fill="#231f20" d="M2687.3 2334.682c9.771 51.404 8.933 104.079 18.697 155.514 1.49 7.777 13.211 3.953 11.761-3.76-9.771-51.406-8.935-104.078-18.698-155.522C2697.568 2323.145 2685.848 2326.969 2687.3 2334.682L2687.3 2334.682zM2769.867 2323.123c-1.322 30.645 1.072 61.518 2.628 92.119.74 14.896 1.514 29.815 2.103 44.732.25 6.159.372 12.321.431 18.516.085 15.595 6.219-2.041 8.738 5.291-2.587-7.497-14.35-3.776-11.738 3.764.854 2.489 1.664 4.752 3.596 6.626 2.079 2.014 5.097 1.971 7.491.648 11.664-6.381 3.186-49.908 2.708-59.632-1.798-37.369-5.239-75.127-3.638-112.563C2782.523 2314.654 2770.204 2315.232 2769.867 2323.123L2769.867 2323.123zM2765.507 2229.612c-8.429 10.426-19.143 25.551-12.375 39.481 6.393 13.2 23.593 15.432 36.571 16.331 7.911.545 7.309-11.791-.515-12.322-8.278-.573-20.183-1.527-25.06-9.363-4.771-7.671 6.259-20.61 10.441-25.767C2779.552 2231.821 2770.507 2223.429 2765.507 2229.612L2765.507 2229.612z" class="color231f20 svgShape"/><g fill="#000000" class="color000 svgShape"><path fill="#231f20" d="M1665.949,2675.661c39.035-23.503,84.003-50.143,130.397-53.827     c7.899-0.633,7.432-12.954-0.505-12.318c-48.534,3.866-95.649,31.148-136.557,55.779     C1652.493,2669.382,1659.135,2679.781,1665.949,2675.661L1665.949,2675.661z" class="color231f20 svgShape"/><path fill="#231f20" d="M1656.292,2666.621c6.628,40.666,10.756,122.816,53.443,144.361      c38.658,19.514,101.132-32.644,135.177-47.415c7.21-3.13,3.544-14.925-3.762-11.761      c-35.938,15.597-68.269,38.118-106.367,49.002c-50.033,14.268-61.202-104.189-66.178-134.686      C1667.344,2658.391,1655.015,2658.794,1656.292,2666.621L1656.292,2666.621z" class="color231f20 svgShape"/><path fill="#231f20" d="M1684.892 2736.587c26.597-18.543 57.808-29.627 90.177-31.646 7.923-.484 7.439-12.804-.507-12.321-34.461 2.157-67.993 13.836-96.327 33.577C1671.733 2730.745 1678.341 2741.146 1684.892 2736.587L1684.892 2736.587zM1896.32 2788.995c-2.524-41.002-11.983-80.681-19.138-121.01-3.35 2.152-6.694 4.274-10.053 6.428 41.832 42.996 72.448 99.674 126.967 128.583 3.703 1.951 7.753-.28 8.898-4.062 14.677-48.304 16.445-103.902 2.307-152.592-2.222-7.636-13.959-3.866-11.745 3.76 13.546 46.614 11.455 99.863-2.574 146.052 2.969-1.342 5.929-2.7 8.896-4.056-53.4-28.295-83.347-84.564-124.39-126.764-4.821-4.963-11.021.975-10.052 6.412 6.947 39.226 16.108 77.882 18.563 117.747C1884.483 2797.432 1896.796 2796.927 1896.32 2788.995L1896.32 2788.995zM2120.036 2667.123c-8.774 17.904-4.912 44.023-3.999 63.082.939 19.822.196 45.078 7.959 63.785 3.021 7.276 14.798 3.596 11.754-3.745-6.759-16.274-5.978-37.969-7.099-55.249-1.14-17.675-5.841-45.547 2.267-62.083C2134.426 2665.762 2123.526 2659.974 2120.036 2667.123L2120.036 2667.123zM2044.049 2666.722c48.31-11.636 97.866-25.847 147.289-12.472 7.697 2.062 10.446-9.965 2.782-12.026-51.54-13.915-103.423.596-153.832 12.737C2032.566 2656.834 2036.351 2668.555 2044.049 2666.722L2044.049 2666.722zM1420.842 2669.211c15.146 54.992 44.946 102.727 72.648 152.056 1.954 3.483 7.159 3.666 9.717.852 19.271-21.201 30.613-42.454 31.792-71.462-3.784 1.182-7.567 2.372-11.351 3.569 17.1 25.287 43.142 41.195 70.225 54.192 3.868 1.849 7.585-.214 8.905-4.064 23.462-68.924 37.399-140.716 57.176-210.708 2.174-7.681-9.861-10.398-12.011-2.797-13.294 47.033-24.444 94.646-36.778 141.924-5.128 19.712-10.771 39.258-16.943 58.647-3.271 10.244-55.515-36.92-60.192-43.86-3.609-5.304-11.11-2.408-11.351 3.604-.832 20.691-6.927 35.58-19.203 51.943-8.25 10.981-13.38-12.74-18.987-22.481-21.182-36.787-40.575-74.062-51.895-115.16C1430.476 2657.798 1418.731 2661.573 1420.842 2669.211L1420.842 2669.211zM3266.399 2590.72c-61.251-64.387-189.725 41.167-152.052 116.001 37.193 73.922 179.198 60.803 181.373-29.753.046-2.51-2.211-5.452-4.773-5.769-1.35-.164-2.716-.329-4.089-.499-4.247-.506-7.264 1.991-7.547 6.266-1.301 20.319 1.055 40.408 5.621 60.223 1.794 7.74 13.53 3.939 11.745-3.759-4.356-18.831-6.289-37.718-5.046-56.963-2.517 2.072-5.022 4.162-7.556 6.25 3.977.47-11.519 30.057-15.441 34.659-12.019 14.114-31.694 20.478-49.295 23.421-31.811 5.29-68.673-4.287-88.823-30.478-47.607-61.941 73.022-167.833 127.522-110.536C3263.514 2605.561 3271.841 2596.46 3266.399 2590.72L3266.399 2590.72zM2977.41 2752.397c-5.451-40.706-17.604-79.638-27.604-119.353-3.36 2.12-6.71 4.274-10.054 6.396 44.797 39.91 79.346 94.376 135.759 119.299 3.594 1.601 7.983.032 8.9-4.048 11.186-49.254 9.243-104.796-8.354-152.398-2.744-7.433-14.522-3.727-11.737 3.762 16.806 45.474 18.761 98.801 8.085 145.838 2.961-1.339 5.923-2.68 8.896-4.045-55.315-24.41-89.259-78.332-133.204-117.462-4.785-4.277-11.53.515-10.037 6.411 9.726 38.639 21.729 76.48 27.028 116.099C2966.134 2760.711 2978.459 2760.277 2977.41 2752.397L2977.41 2752.397zM2885.015 2618.045c-45.706-29.1-102.571 17.896-121.465 58.485-22.502 48.339 18.735 92.565 67.647 93.048 44.273.406 82.983-39.756 95.236-79.529 15.071-48.972-25.907-74.271-69.363-75.815-7.955-.257-7.384 12.045.499 12.32 39.67 1.397 68.691 22.192 55.791 64.127-9.972 32.37-41.516 60.817-74.968 66.001-20.266 3.135-38.472-5.234-53.875-17.698-19.282-15.588-17.593-40.496-8.144-60.859 15.725-33.771 65.545-72.95 102.853-49.172C2885.961 2633.216 2891.671 2622.285 2885.015 2618.045L2885.015 2618.045zM2576.156 2613.692c6.052 51.063 12.698 101.502 9.195 153.041-.553 7.929 11.732 8.936 12.285 1.008 3.578-52.633-3.184-104.144-9.355-156.345C2587.354 2603.514 2575.227 2605.825 2576.156 2613.692L2576.156 2613.692z" class="color231f20 svgShape"/><path fill="#231f20" d="M2595.815 2619.022c23.047-11.505 51.309-13.027 60.6 16.108 9.775 30.693-18.388 58.964-41.259 73.752-4.183 2.695-5.012 9.426.544 11.34 39.378 13.573 78.059 29.08 117.435 42.654 7.531 2.584 11.763-8.994 4.232-11.593-39.377-13.574-78.034-29.073-117.435-42.647.193 3.788.379 7.576.549 11.355 30.955-20 58.928-52.985 46.472-92.119-11.023-34.573-49.709-33.329-76.479-19.984C2583.383 2611.43 2588.661 2622.564 2595.815 2619.022L2595.815 2619.022zM2310.407 2632.825c15.146 54.97 44.949 102.719 72.654 152.04 1.933 3.475 7.155 3.684 9.719.834 19.261-21.185 30.597-42.442 31.784-71.461-3.792 1.198-7.561 2.396-11.359 3.597 17.101 25.251 43.134 41.175 70.232 54.157 3.859 1.851 7.594-.215 8.913-4.041 23.453-68.924 37.383-140.725 57.161-210.723 2.174-7.658-9.86-10.406-12.005-2.782-13.293 47.043-24.45 94.623-36.776 141.941-5.138 19.688-10.771 39.226-16.952 58.631-3.261 10.244-55.506-36.918-60.19-43.842-3.587-5.322-11.104-2.409-11.344 3.576-.842 20.678-6.933 35.605-19.195 51.938-8.265 10.98-13.386-12.71-19.011-22.474-21.158-36.778-40.566-74.062-51.885-115.161C2320.04 2621.396 2308.302 2625.156 2310.407 2632.825L2310.407 2632.825z" class="color231f20 svgShape"/><g fill="#000000" class="color000 svgShape"><path fill="#231f20" d="M3341.101 2723.007c2.805 6.014 4.514 12.304 5.161 18.88 3.465-1.599 6.898-3.188 10.353-4.803-2.59-4.957-3.756-10.359-3.465-16.212-.849-7.844-13.17-7.393-12.32.524.869 8.058.994 18.857 7.427 24.766 4.189 3.854 10.149.43 10.325-4.774.281-7.589-3.32-15.188-5.719-22.125C3350.285 2711.77 3338.515 2715.485 3341.101 2723.007L3341.101 2723.007zM3379.378 2720.068c2.788 6.014 4.522 12.306 5.161 18.879 3.448-1.598 6.89-3.189 10.339-4.785-2.582-4.975-3.733-10.377-3.467-16.228-.863-7.846-13.168-7.379-12.32.521.868 8.053 1.018 18.858 7.428 24.77 4.187 3.866 10.156.419 10.34-4.785.263-7.58-3.351-15.179-5.734-22.118C3388.539 2708.823 3376.792 2712.544 3379.378 2720.068L3379.378 2720.068zM3421.775 2713.995c.771 5.927 1.548 11.852 2.312 17.771 3.739-.631 7.469-1.271 11.2-1.917-1.853-5.905-2.354-11.9-1.479-17.989.288-7.954-12.028-7.384-12.319.499-.267 7.069-1.571 18.017 3.425 24.146 3.078 3.778 10.128 3.847 11.185-1.942 1.468-8.033-1.074-16.498-2.584-24.328C3432.029 2702.443 3420.302 2706.291 3421.775 2713.995L3421.775 2713.995z" class="color231f20 svgShape"/></g></g><g fill="#000000" class="color000 svgShape"><path fill="#f5882f" d="M2821.188,1851.517c134.154-71.306,207.206-162.032,261.82-301.345    c39.541-105.803,119.639-158.436,190.93-24.266c112.986,214.718-178.263,467.914-377.353,426.708" class="colorf5882f svgShape"/><path fill="#d67631" d="M3273.938,1525.899c-16.174-30.457-32.803-51.203-49.336-63.955l-0.408,0.279    c0,0,55.971,27.869,12.968,183.17c-18.821,68.013-86.713,147.063-139.852,200.389c-62.151,62.379-179.077,56.766-220.73,79.997    l20.006,26.82C3095.676,1993.805,3386.925,1740.608,3273.938,1525.899z" class="colord67631 svgShape"/><path fill="#f5882f" d="M1757.685,1657.849c0,0-26.748,153.308,27.228,266.241    c53.967,112.938,123.897,311.555,123.897,311.555l308.329-0.237l-2.362-57.479c0,0,136.702,54.708,358.406,45.628    c221.728-9.07,413.815-71.756,325.518-353.295c-36.654-91.717-150.032-215.951-150.032-215.951s95.996-1.451,100.182-90.568    c0.616-12.74-0.25-27.609-3.023-44.976c-22.128-138.927-23.34-369.18-23.34-369.18l81.928-208.982    c0,0-183.678-66.507-296.275-4.325c-112.614,62.19-161.399-125.004-734.183-52.211c-140.608-18.922-182.664-41.873-287.74,3.545    c43.753,64.017,62.19,112.614,62.19,112.614s-67.078,167.215-78.125,299.27C1537.888,1686.715,1790.473,1659.24,1757.685,1657.849    z" class="colorf5882f svgShape"/><path fill="#d67631" d="M2479.087,2147.992c-363.02,30.027-718.489-305.094-718.489-305.094l-0.132,0.178    c5.16,28.462,13.256,57.182,25.927,83.693c53.976,112.953,123.905,311.579,123.905,311.579l308.321-0.254l-2.35-57.478    c0,0,136.698,54.706,358.418,45.643c176.1-7.213,333.375-48.406,346.422-206.094    C2834.352,2052.582,2774.185,2123.576,2479.087,2147.992z" class="colord67631 svgShape"/><path fill="#f6cc66" d="M2557.381,951.225c0.089-1.118,0.032-2.376,0.106-3.517    c-89.613-6.286-203.724-125.185-679.671-64.71c-140.608-18.922-182.673-41.875-287.748,3.552    c43.752,64.009,62.188,112.605,62.188,112.605s-67.077,167.215-78.116,299.273c-28.086,335.645,157.832,359.676,186.536,359.235    l0.853-0.886c0,0-114.095-130.591-112.816-298.24C1650.614,1108.103,1846.76,802.926,2557.381,951.225z" class="colorf6cc66 svgShape"/><path fill="#f7bacd" d="M2710.864 1504.551c2.177 53.145-39.162 98.006-92.325 100.196-53.142 2.168-97.977-39.158-100.161-92.315-2.163-53.148 39.137-97.988 92.288-100.167C2663.833 1410.095 2708.697 1451.416 2710.864 1504.551zM1846.187 1495.156c2.17 53.144-39.164 97.998-92.32 100.194-53.149 2.164-97.985-39.171-100.153-92.32-2.185-53.136 39.124-97.983 92.28-100.16C1799.156 1400.692 1844.017 1442.013 1846.187 1495.156z" class="colorf7bacd svgShape"/><path fill="#ffffff" d="M2196.248 1186.148c0 0-80.201 184.231 79.68 205.114 159.89 20.883 357.198 18.293 365.887-36.903 8.696-55.192 56.509-227.134-70.738-254.835C2443.826 1071.839 2231.876 1118.893 2196.248 1186.148zM1646.474 1285.422c0 0 123.79 77.192 217.315 84.326 93.516 7.143 224.002-20.141 205.108-79.679-18.885-59.539 5.815-126.362-94.071-155.171-99.887-28.814-183.338-58.299-263.657-11.149C1630.837 1170.908 1584.24 1238.615 1646.474 1285.422z" class="colorfff svgShape"/><path fill="#231f20" d="M1791.654 1164.324c.78 19.283-14.191 35.557-33.483 36.336-19.298.797-35.564-14.188-36.345-33.481-.788-19.276 14.19-35.55 33.483-36.345C1774.6 1130.053 1790.866 1145.048 1791.654 1164.324zM2614.591 1174.514c.794 19.283-14.198 35.559-33.475 36.346-19.3.781-35.574-14.206-36.354-33.482-.789-19.283 14.19-35.567 33.489-36.346C2597.537 1140.243 2613.787 1155.23 2614.591 1174.514zM2064.374 1362.147c27.256-21.75 76.723-20.348 111.17 4.18-22.244 14.053-44.485 28.105-62.661 42.612C2097.933 1394.85 2079.326 1376.236 2064.374 1362.147" class="color231f20 svgShape"/><path fill="#231f20" d="M2111.003,1390.767c-3.598,31.087-3.559,62.429-7.15,93.517     c-0.897,7.782,11.04,10.908,11.952,3.035c3.581-31.086,3.551-62.428,7.15-93.516     C2123.851,1386.02,2111.915,1382.895,2111.003,1390.767L2111.003,1390.767z" class="color231f20 svgShape"/><path fill="#231f20" d="M2003.406,1478.313c-32.644,30.046-8.03,65.474,26.947,78.161     c55.06,19.955,84.662-32.196,87.654-78.938c0.448-7.105-10.441-7.967-12.142-1.402c-17.314,66.971,6.316,129.299,83.143,128.131     c49.979-0.767,117.701-39.726,94.743-97.846c-2.893-7.328-14.749-3.899-11.822,3.508     c32.357,81.941-198.091,139.293-154.113-30.754c-4.038-0.463-8.085-0.932-12.134-1.394     c-2.544,39.716-21.809,77.319-67.158,68.189c-29.077-5.861-52.496-34.932-26.228-59.107     C2018.148,1481.463,2009.235,1472.949,2003.406,1478.313L2003.406,1478.313z" class="color231f20 svgShape"/><defs><path id="a" d="M1741.624,1645.16c0,0-9.697,164.918,44.272,277.867c53.967,112.938,109.963,275.153,109.963,275.153      l322.264,36.162l-2.356-57.493c0,0,119.33,102.062,341.023,92.983c221.728-9.071,345.9,10.527,308.828-292.296      c-21.114-114.279-75.75-243.656-75.75-243.656s79.076-77.267,56.949-216.176c-22.146-138.926-23.324-369.191-23.324-369.191      l81.91-208.981c0,0-183.675-66.506-296.288-4.324c-16.578,9.162-31.789,12.91-47.489,12.879      c-90.877-0.2-198.289-127.148-686.681-65.092c-140.605-18.921-182.67-41.871-287.747,3.553      c43.753,64.01,62.188,112.607,62.188,112.607s-67.745,150.796-78.791,282.853      C1559.549,1414.065,1543.878,1636.815,1741.624,1645.16z" fill="#000000" class="color000 svgShape"/></defs><clipPath id="b"><use overflow="visible" xlink:href="#a"/></clipPath><g clip-path="url(#b)" fill="#000000" class="color000 svgShape"><path fill="#723a18" d="M2094.402 816.415c-171.124 240.092 239.029 414.018 173.744 24.672M2326.684 864.485c-116.405 170.469 125.35 248.944 90.771 7.332M1910.637 848.026c-57.047 214.012 116.359 230.428 114.476-16.441M1583.093 886.721l87.754-69.434 118.564-17.185 30.756 48.091 5.28 28.577c0 0-101.975 20.617-130.044 38.226C1649.737 904.524 1583.093 886.721 1583.093 886.721zM2788.979 1005.963l164.625-97.222-353.006-84.253-38.212 71.477C2562.387 895.966 2758.873 974.285 2788.979 1005.963z" class="color723a18 svgShape"/></g><path fill="#eedeb3" d="M2736.535 1039.643c0 0 116.821-86.974 169.88-100.139-21.126 50.185-83.927 210.09-83.927 210.09s-14.37-23.331-37.064-54.032C2771.797 1077.129 2751.916 1055.801 2736.535 1039.643zM1586.216 887.614c0 0 87.01 12.861 122.577 27.858-15.914 12.985-26.428 25.46-36.423 39.524-15.442 21.779-23.964 45.231-23.964 45.231S1592.941 903.824 1586.216 887.614z" class="coloreedeb3 svgShape"/><path fill="#231f20" d="M1435.415 1470.867c66.607-27.156 139.729-46.055 212.066-37.553 10.388 1.219 14.54-14.698 4.051-15.924-75.484-8.885-151.113 9.307-220.794 37.726C1421.036 1459.076 1425.593 1474.885 1435.415 1470.867L1435.415 1470.867zM1653.792 1478.891c-59.011 15.768-114.901 38.74-167.767 69.342-9.173 5.313-.604 19.344 8.578 14.026 51.651-29.912 106.24-52.203 163.865-67.608C1668.704 1491.914 1664.03 1476.156 1653.792 1478.891L1653.792 1478.891zM1661.566 1516.371c-61.301 40.514-120.191 84.102-168.696 139.757-6.948 7.952 4.866 19.395 11.846 11.388 47.602-54.611 105.273-97.361 165.429-137.12C1678.949 1524.568 1670.436 1510.509 1661.566 1516.371L1661.566 1516.371zM2675.592 1479.42c79.779-36.473 171.028-62.629 259.059-46.92 10.375 1.857 14.479-14.066 4.056-15.924-92.785-16.569-187.602 10.379-271.677 48.819C2657.406 1469.791 2666.063 1483.781 2675.592 1479.42L2675.592 1479.42zM2692.078 1528.891c61.278-13.902 121.356-23.723 184.172-15.855 10.382 1.301 14.526-14.617 4.052-15.93-65.941-8.262-128.584 1.438-192.901 16.027C2677.077 1515.472 2681.785 1531.23 2692.078 1528.891L2692.078 1528.891zM2685.9 1578.492c74.113-25.816 168.956 51.607 222.147 95.557 8.131 6.714 19.565-5.094 11.386-11.848-58.317-48.195-156.749-127.85-238.211-99.467C2671.239 1566.205 2675.86 1581.981 2685.9 1578.492L2685.9 1578.492zM1840.422 815.629c-2.897-18.908 4.797-31.661 24.118-21.378 18.579 9.884 26.387 32.191 26.483 51.949 2.557-2.034 5.12-4.069 7.686-6.102-4.378-1.514-15.678-7.719-16.62-7.007 3.854-2.903 10.283-2.427 14.767-2.155 20.813 1.26 28.537 18.448 24.102 37.078-1.837 7.73 10.105 10.76 11.953 3.037 7.14-29.971-11.022-53.426-42.18-52.54-7.673.216-18.842 2.931-20.611 11.767-2.566 12.764 16.955 18.805 25.544 21.781 3.891 1.332 7.703-2.366 7.687-6.102-.14-28.368-14.316-56.442-42.051-66.544-25.497-9.293-36.433 15.369-33.201 36.461C1829.287 823.615 1841.629 823.465 1840.422 815.629L1840.422 815.629zM2428.111 912.483c3.283-14.45 10.639-24.711 26.218-25.155 12.133-.343 24.762 9.952 7.127 16.036 2.546 1.391 5.099 2.773 7.658 4.166-10.014-43.498 57.483-45.901 84.011-33.689 7.192 3.314 13.225-7.439 6.014-10.761-37.105-17.077-114.727-7.974-101.848 47.956.731 3.172 4.643 5.199 7.674 4.158 20.173-6.961 27.762-25.144 5.867-36.365-25.724-13.165-49.029 5.828-54.656 30.609C2414.403 917.191 2426.362 920.227 2428.111 912.483L2428.111 912.483z" class="color231f20 svgShape"/><path fill="#231f20" d="M1620.578 1048.24c-51.856 157.133-109.951 387.9-.07 533.827 62.947 83.606 181.706 97.744 277.933 109.022 133.74 15.69 269.329 9.604 403.503 4.121 7.927-.316 7.699-12.642-.244-12.325-120.032 4.907-240.165 9.087-360.115.062-108.254-8.164-245.252-20.58-315.738-114.191-50.668-67.297-55.419-160.083-50.806-240.869 5.361-93.767 28.153-187.712 57.49-276.608C1635.024 1043.71 1623.051 1040.745 1620.578 1048.24L1620.578 1048.24zM1915.945 2245.653c36.499-1.494 72.982-2.997 109.479-4.478 3.303-.144 6.181-2.886 6.043-6.283-2.842-69.527-4.013-138.695-3.023-208.267.113-7.944-12.212-7.684-12.325.243-.594 42.092-1.14 84.15-.06 126.241.588 22.386 1.563 44.78 2.478 67.175.64 15.91-90.466 12.527-102.835 13.043C1907.774 2233.645 1907.994 2245.968 1915.945 2245.653L1915.945 2245.653z" class="color231f20 svgShape"/><path fill="#231f20" d="M2038.72 2244.155c59.266-2.232 118.603-2.41 177.873-4.645 3.494-.131 5.924-2.879 6.04-6.282 3.228-96.903 1.348-193.905 4.552-290.807.258-7.954-12.067-7.663-12.325.243-2.49 75.057-2.126 150.2-3.108 225.275-.226 16.378-.539 32.745-.939 49.114-.436 17.824-25.164 11.139-39.154 11.502-44.398 1.103-88.801 1.591-133.183 3.272C2030.543 2232.114 2030.77 2244.44 2038.72 2244.155L2038.72 2244.155zM2301.943 1695.211c145.874-16.052 292.715-2.486 437.26-32.46 53.18-11.04 98.756-28.829 110.24-86.437 15.259-76.6-14.323-155.872-15.44-232.426-.126-7.947-12.45-7.693-12.325.244 1.03 69.769 19.865 137.228 17.932 207.359-2.424 87.68-82.961 96.354-152.788 108.973-126.638 22.89-257.542 8.387-385.121 22.421C2293.864 1683.751 2294.035 1696.077 2301.943 1695.211L2301.943 1695.211z" class="color231f20 svgShape"/><defs><path id="c" d="M2821.425,1856.968c134.153-71.266,207.205-162.008,261.844-301.321      c39.531-105.801,119.632-158.436,190.905-24.264c113.004,214.707-178.261,467.904-377.351,426.699" fill="#000000" class="color000 svgShape"/></defs><clipPath id="d"><use overflow="visible" xlink:href="#c"/></clipPath><g clip-path="url(#d)" fill="#000000" class="color000 svgShape"><path fill="#231f20" d="M3014.89 1548.518c96.187 100.565 195.316 191.747 343.459 185.049 52.865-2.385 51.375-84.57-1.626-82.167-125.113 5.653-204.56-78.168-284.884-162.132C3035.134 1450.895 2978.333 1510.299 3014.89 1548.518L3014.89 1548.518zM2967.052 1654.657c84.974 119.243 193.412 199.075 336.613 233.645 30.958 7.479 43.042-40.326 12.167-47.792-130.582-31.516-229.11-102.707-306.7-211.567C2990.802 1603.203 2948.554 1628.684 2967.052 1654.657L2967.052 1654.657z" class="color231f20 svgShape"/></g><path fill="#2d85c6" d="M2084.096 388.116c3.055 43.708 56.975 68.511 78.115 33.117 32.711-54.792 76.088 11.956 67.701 46.588-10.552 43.609-98.523 88.337-91.022 137.382 7.502 49.045 76.172 52.401 80.481 6.986 3-31.539 34.267-67.194 57.399-88.021 8.06-7.247 42.856-49.306 37.436-107.097-5.567-59.502-52.328-115.375-130.152-115.3C2115.522 301.823 2082.419 364.184 2084.096 388.116zM2228.982 696.104c.871 21.541-15.869 39.724-37.413 40.604-21.537.881-39.726-15.868-40.597-37.405-.889-21.544 15.869-39.725 37.405-40.604C2209.913 657.817 2228.094 674.566 2228.982 696.104zM2175.479 745.588c-.045-1.131.383-2.07.948-2.098.558-.02 1.059.887 1.106 2.018.046 1.13-.382 2.07-.939 2.089C2176.03 747.623 2175.525 746.717 2175.479 745.588z" class="color2d85c6 svgShape"/><g fill="#000000" class="color000 svgShape"><path fill="#2d85c6" d="M2994.568 856.373c-9.219 27.646 17.638 56.553 39.615 40.165 33.979-25.39 43.746 26.644 29.805 45.806-17.557 24.123-82.958 29.313-90.782 61.358-7.84 32.04 33.532 51.526 47.69 24.706 9.841-18.637 38.113-32.616 57.592-39.558 6.794-2.411 38.851-19.445 50.196-56.327 11.642-37.99-2.917-84.18-50.785-103.879C3035.771 811.304 2999.598 841.244 2994.568 856.373zM3005.525 1082.428c-4.92 13.455-19.828 20.385-33.283 15.466-13.455-4.929-20.393-19.827-15.457-33.29 4.901-13.465 19.811-20.385 33.283-15.475C3003.522 1054.048 3010.443 1068.957 3005.525 1082.428zM2960.105 1099.274c.258-.707.742-1.171 1.104-1.05.354.13.431.804.157 1.519-.248.704-.749 1.176-1.103 1.039C2959.903 1100.662 2959.842 1099.97 2960.105 1099.274z" class="color2d85c6 svgShape"/></g><g fill="#000000" class="color000 svgShape"><path fill="#2d85c6" d="M1279.584 938.651c22.346 19.909 60.523 6.268 53.937-21.105-10.182-42.341 42.862-30.471 55.295-9.555 15.653 26.325-5.966 90.14 21.12 110.504 27.054 20.38 62.185-10.765 42.621-34.98-13.594-16.842-15.325-49.17-13.984-70.366.489-7.394-2.602-44.528-32.819-70.176-31.115-26.378-80.605-31.349-118.588 5.835C1253.746 881.537 1267.349 927.775 1279.584 938.651zM1497.3 1019.881c10.723 10.093 11.207 26.976 1.104 37.684-10.094 10.705-26.963 11.206-37.677 1.103-10.705-10.103-11.19-26.954-1.104-37.667C1469.719 1010.294 1486.594 1009.801 1497.3 1019.881zM1494.794 1069.575c-.56-.53-.795-1.203-.554-1.454.265-.293.937-.091 1.498.465.592.489.835 1.177.538 1.47C1496.027 1070.307 1495.361 1070.098 1494.794 1069.575z" class="color2d85c6 svgShape"/></g><g fill="#000000" class="color000 svgShape"><path fill="#81d1f4" d="M2061.376 382.281c3.055 43.707 56.975 68.521 78.107 33.117 32.719-54.793 76.094 11.957 67.708 46.587-10.55 43.61-98.525 88.339-91.023 137.382 7.503 49.047 76.172 52.4 80.483 6.986 2.999-31.529 34.266-67.193 57.398-88.019 8.061-7.247 42.848-49.298 37.435-107.097-5.566-59.5-52.328-115.367-130.151-115.308C2092.802 295.988 2059.698 358.348 2061.376 382.281zM2206.253 690.276c.88 21.534-15.859 39.717-37.404 40.597-21.537.882-39.726-15.87-40.597-37.405-.889-21.535 15.861-39.725 37.404-40.605C2187.192 651.982 2205.373 668.731 2206.253 690.276zM2152.76 739.752c-.048-1.129.38-2.068.945-2.089.558-.026 1.062.88 1.107 2.009.046 1.131-.382 2.071-.939 2.09C2153.31 741.789 2152.804 740.883 2152.76 739.752z" class="color81d1f4 svgShape"/></g><g fill="#000000" class="color000 svgShape"><path fill="#81d1f4" d="M2971.85 850.547c-9.221 27.639 17.636 56.554 39.614 40.163 33.979-25.396 43.746 26.638 29.804 45.8-17.571 24.123-82.958 29.31-90.781 61.358-7.842 32.048 33.531 51.523 47.691 24.704 9.841-18.625 38.111-32.615 57.592-39.556 6.793-2.412 38.852-19.44 50.196-56.333 11.642-37.986-2.917-84.174-50.787-103.88C3013.051 805.478 2976.877 835.409 2971.85 850.547zM2982.804 1076.593c-4.918 13.461-19.828 20.385-33.282 15.466-13.453-4.918-20.394-19.82-15.474-33.282 4.92-13.463 19.826-20.394 33.299-15.474C2980.802 1048.221 2987.723 1063.129 2982.804 1076.593zM2937.387 1093.446c.257-.713.74-1.186 1.102-1.05.353.13.43.798.158 1.51-.249.706-.749 1.179-1.103 1.042C2937.184 1094.827 2937.122 1094.135 2937.387 1093.446z" class="color81d1f4 svgShape"/></g><g fill="#000000" class="color000 svgShape"><path fill="#81d1f4" d="M1256.863 932.816c22.338 19.909 60.524 6.266 53.937-21.098-10.18-42.348 42.854-30.479 55.289-9.56 15.661 26.323-5.96 90.137 21.127 110.51 27.046 20.365 62.185-10.773 42.621-34.989-13.596-16.84-15.327-49.169-13.985-70.365.491-7.394-2.602-44.53-32.82-70.168-31.115-26.386-80.604-31.356-118.587 5.827C1231.026 875.7 1244.63 921.94 1256.863 932.816zM1474.578 1014.045c10.722 10.103 11.207 26.978 1.098 37.686-10.088 10.713-26.955 11.206-37.668 1.104-10.707-10.094-11.192-26.947-1.104-37.676C1446.998 1004.459 1463.873 1003.975 1474.578 1014.045zM1472.074 1063.74c-.56-.529-.805-1.195-.557-1.453.268-.293.939-.082 1.501.455.591.507.828 1.185.537 1.479C1473.306 1064.475 1472.641 1064.263 1472.074 1063.74z" class="color81d1f4 svgShape"/></g><g fill="#000000" class="color000 svgShape"><path fill="#723a18" d="M2727.534,1045.698c25.504-25.746,62.112-48.316,94.381-64.305     c9.512-4.696,0.887-18.695-8.563-14.025c-33.56,16.619-71.161,40.158-97.664,66.943     C2708.231,1041.851,2720.092,1053.228,2727.534,1045.698L2727.534,1045.698z" class="color723a18 svgShape"/></g><g fill="#000000" class="color000 svgShape"><path fill="#8c5122" d="M1644.375,902.782c26.608,7.86,52.576,17.692,79.185,25.546     c10.189,3.023,14.176-12.938,4.057-15.922c-26.606-7.861-52.577-17.695-79.192-25.545     C1638.233,883.844,1634.248,899.797,1644.375,902.782L1644.375,902.782z" class="color8c5122 svgShape"/></g><g fill="#000000" class="color000 svgShape"><defs><path id="e" d="M2556.634,951.225c0.089-1.118,0.032-2.376,0.106-3.517c-89.613-6.286-203.724-125.185-679.671-64.71      c-140.608-18.922-182.673-41.875-287.748,3.552c43.752,64.009,62.188,112.605,62.188,112.605s-67.077,167.215-78.116,299.273      c-28.086,335.645,157.832,359.676,186.536,359.235l0.853-0.886c0,0-114.095-130.591-112.816-298.24      C1649.868,1108.103,1846.013,802.926,2556.634,951.225z" fill="#000000" class="color000 svgShape"/></defs><clipPath id="f"><use overflow="visible" xlink:href="#e"/></clipPath><path fill="#8c5122" d="M2093.656 816.415c-171.124 240.092 239.029 414.018 173.744 24.672M2325.937 864.485c-116.405 170.469 125.35 248.944 90.771 7.332M1909.89 848.026c-57.047 214.012 116.359 230.428 114.476-16.441M1582.346 886.721l87.754-69.434 118.563-17.185 30.756 48.091 5.28 28.577c0 0-101.975 20.617-130.044 38.226C1648.991 904.524 1582.346 886.721 1582.346 886.721z" clip-path="url(#f)" class="color8c5122 svgShape"/></g></g></svg>